REM MD5 b7084d4d5477a648a0c86f133709f1af
FILE "Hugo (Europe) (Nl,Pt).bin" BINARY
  TRACK 01 MODE2/2352
    INDEX 01 00:00:00
  TRACK 02 AUDIO
    INDEX 00 44:42:37
    INDEX 01 44:44:37
  TRACK 03 AUDIO
    INDEX 00 46:53:66
    INDEX 01 46:55:66
  TRACK 04 AUDIO
    INDEX 00 48:34:39
    INDEX 01 48:36:39
  TRACK 05 AUDIO
    INDEX 00 49:48:62
    INDEX 01 49:50:62
REM LEADOUT 52:50:63
